<mxfile host="65bd71144e" modified="2021-02-24T18:17:37.904Z" agent="5.0 (Macintosh; Intel Mac OS X 11_2_1) AppleWebKit/537.36 (KHTML, like Gecko) Code/1.53.2 Chrome/87.0.4280.141 Electron/11.2.1 Safari/537.36" etag="yqeKUoql0wsk9KMKBrKm" version="14.2.4" type="embed">
    <diagram id="Q2aRL8ScQoQYqk_JuvIn" name="Page-1">
        <mxGraphModel dx="1250" dy="900" grid="1" gridSize="10" guides="1" tooltips="1" connect="1" arrows="1" fold="1" page="1" pageScale="1" pageWidth="827" pageHeight="1169" math="0" shadow="0">
            <root>
                <mxCell id="0"/>
                <mxCell id="1" parent="0"/>
                <mxCell id="125" value="Module Products" style="shape=module;align=left;spacingLeft=20;align=center;verticalAlign=top;rounded=0;sketch=0;fillColor=#f5f5f5;strokeColor=#666666;fontColor=#333333;" parent="1" vertex="1">
                    <mxGeometry x="600" y="2080" width="480" height="170" as="geometry"/>
                </mxCell>
                <mxCell id="3" value="&lt;h1&gt;&lt;span&gt;Angular Components&lt;/span&gt;&lt;/h1&gt;&lt;h1&gt;&lt;span style=&quot;font-size: 12px ; font-weight: 400&quot;&gt;Web Components (todo lo que tenga presencia/accion en la UI)&lt;/span&gt;&lt;/h1&gt;" style="text;html=1;strokeColor=none;fillColor=none;spacing=5;spacingTop=-20;whiteSpace=wrap;overflow=hidden;rounded=0;" parent="1" vertex="1">
                    <mxGeometry x="20" y="40" width="620" height="80" as="geometry"/>
                </mxCell>
                <mxCell id="4" value="atomo" style="ellipse;whiteSpace=wrap;html=1;aspect=fixed;fillColor=#f5f5f5;strokeColor=#666666;fontColor=#333333;" parent="1" vertex="1">
                    <mxGeometry x="40" y="580" width="80" height="80" as="geometry"/>
                </mxCell>
                <mxCell id="5" value="molecula" style="ellipse;whiteSpace=wrap;html=1;aspect=fixed;fillColor=#dae8fc;strokeColor=#6c8ebf;" parent="1" vertex="1">
                    <mxGeometry x="160" y="580" width="80" height="80" as="geometry"/>
                </mxCell>
                <mxCell id="6" value="organismo" style="ellipse;whiteSpace=wrap;html=1;aspect=fixed;fillColor=#d5e8d4;strokeColor=#82b366;" parent="1" vertex="1">
                    <mxGeometry x="280" y="580" width="80" height="80" as="geometry"/>
                </mxCell>
                <mxCell id="7" value="&lt;h1&gt;&lt;span&gt;Programacion atomica&lt;/span&gt;&lt;/h1&gt;" style="text;html=1;strokeColor=none;fillColor=none;spacing=5;spacingTop=-20;whiteSpace=wrap;overflow=hidden;rounded=0;" parent="1" vertex="1">
                    <mxGeometry x="20" y="520" width="620" height="50" as="geometry"/>
                </mxCell>
                <mxCell id="53" style="edgeStyle=orthogonalEdgeStyle;curved=0;rounded=1;sketch=0;orthogonalLoop=1;jettySize=auto;html=1;entryX=0.5;entryY=1;entryDx=0;entryDy=0;" parent="1" source="8" target="4" edge="1">
                    <mxGeometry relative="1" as="geometry"/>
                </mxCell>
                <mxCell id="8" value="un componente simple" style="text;html=1;strokeColor=none;fillColor=none;align=center;verticalAlign=middle;whiteSpace=wrap;rounded=0;" parent="1" vertex="1">
                    <mxGeometry x="40" y="680" width="80" height="50" as="geometry"/>
                </mxCell>
                <mxCell id="54" style="edgeStyle=orthogonalEdgeStyle;curved=0;rounded=1;sketch=0;orthogonalLoop=1;jettySize=auto;html=1;entryX=0.5;entryY=1;entryDx=0;entryDy=0;" parent="1" source="9" target="5" edge="1">
                    <mxGeometry relative="1" as="geometry"/>
                </mxCell>
                <mxCell id="9" value="un conjunto de atomos" style="text;html=1;strokeColor=none;fillColor=none;align=center;verticalAlign=middle;whiteSpace=wrap;rounded=0;" parent="1" vertex="1">
                    <mxGeometry x="160" y="680" width="80" height="50" as="geometry"/>
                </mxCell>
                <mxCell id="55" style="edgeStyle=orthogonalEdgeStyle;curved=0;rounded=1;sketch=0;orthogonalLoop=1;jettySize=auto;html=1;entryX=0.5;entryY=1;entryDx=0;entryDy=0;" parent="1" source="12" target="6" edge="1">
                    <mxGeometry relative="1" as="geometry"/>
                </mxCell>
                <mxCell id="12" value="un conjunto de moleculas" style="text;html=1;strokeColor=none;fillColor=none;align=center;verticalAlign=middle;whiteSpace=wrap;rounded=0;" parent="1" vertex="1">
                    <mxGeometry x="280" y="680" width="80" height="50" as="geometry"/>
                </mxCell>
                <mxCell id="13" value="template (.html)" style="rounded=0;whiteSpace=wrap;html=1;fillColor=#dae8fc;strokeColor=#6c8ebf;" parent="1" vertex="1">
                    <mxGeometry x="40" y="150" width="120" height="60" as="geometry"/>
                </mxCell>
                <mxCell id="14" value="controller/mediator (.ts)" style="rounded=0;whiteSpace=wrap;html=1;fillColor=#dae8fc;strokeColor=#6c8ebf;" parent="1" vertex="1">
                    <mxGeometry x="180" y="150" width="120" height="60" as="geometry"/>
                </mxCell>
                <mxCell id="15" value="la grafica de la UI (.css/.scss)" style="rounded=0;whiteSpace=wrap;html=1;fillColor=#dae8fc;strokeColor=#6c8ebf;" parent="1" vertex="1">
                    <mxGeometry x="320" y="150" width="120" height="60" as="geometry"/>
                </mxCell>
                <mxCell id="37" value="menu" style="shape=folder;xSize=90;align=left;spacingLeft=10;align=left;verticalAlign=top;spacingLeft=5;spacingTop=-4;tabWidth=70;tabHeight=20;tabPosition=left;html=1;strokeWidth=1;recursiveResize=0;rounded=0;sketch=0;fillColor=#d5e8d4;strokeColor=#82b366;" parent="1" vertex="1">
                    <mxGeometry x="40" y="240" width="400" height="230" as="geometry"/>
                </mxCell>
                <mxCell id="48" value="import" style="edgeStyle=orthogonalEdgeStyle;curved=0;rounded=1;sketch=0;orthogonalLoop=1;jettySize=auto;html=1;entryX=0.5;entryY=0;entryDx=0;entryDy=0;" parent="1" source="41" target="43" edge="1">
                    <mxGeometry relative="1" as="geometry"/>
                </mxCell>
                <mxCell id="41" value="menu.component.html" style="html=1;dropTarget=0;rounded=0;sketch=0;fillColor=#fff2cc;strokeColor=#d6b656;" parent="1" vertex="1">
                    <mxGeometry x="50" y="280" width="170" height="50" as="geometry"/>
                </mxCell>
                <mxCell id="42" value="" style="shape=module;jettyWidth=8;jettyHeight=4;" parent="41" vertex="1">
                    <mxGeometry x="1" width="20" height="20" relative="1" as="geometry">
                        <mxPoint x="-27" y="7" as="offset"/>
                    </mxGeometry>
                </mxCell>
                <mxCell id="43" value="menu.component.ts" style="html=1;dropTarget=0;rounded=0;sketch=0;fillColor=#fff2cc;strokeColor=#d6b656;" parent="1" vertex="1">
                    <mxGeometry x="50" y="400" width="170" height="50" as="geometry"/>
                </mxCell>
                <mxCell id="44" value="" style="shape=module;jettyWidth=8;jettyHeight=4;" parent="43" vertex="1">
                    <mxGeometry x="1" width="20" height="20" relative="1" as="geometry">
                        <mxPoint x="-27" y="7" as="offset"/>
                    </mxGeometry>
                </mxCell>
                <mxCell id="49" value="import" style="edgeStyle=orthogonalEdgeStyle;curved=0;rounded=1;sketch=0;orthogonalLoop=1;jettySize=auto;html=1;entryX=0.998;entryY=0.583;entryDx=0;entryDy=0;entryPerimeter=0;" parent="1" source="45" target="43" edge="1">
                    <mxGeometry relative="1" as="geometry"/>
                </mxCell>
                <mxCell id="45" value="menu.component.scss" style="html=1;dropTarget=0;rounded=0;sketch=0;fillColor=#fff2cc;strokeColor=#d6b656;" parent="1" vertex="1">
                    <mxGeometry x="265" y="280" width="170" height="50" as="geometry"/>
                </mxCell>
                <mxCell id="46" value="" style="shape=module;jettyWidth=8;jettyHeight=4;" parent="45" vertex="1">
                    <mxGeometry x="1" width="20" height="20" relative="1" as="geometry">
                        <mxPoint x="-27" y="7" as="offset"/>
                    </mxGeometry>
                </mxCell>
                <mxCell id="51" style="edgeStyle=orthogonalEdgeStyle;curved=0;rounded=1;sketch=0;orthogonalLoop=1;jettySize=auto;html=1;" parent="1" source="50" target="37" edge="1">
                    <mxGeometry relative="1" as="geometry"/>
                </mxCell>
                <mxCell id="50" value="carpeta &lt;b&gt;menu&lt;/b&gt; contiene los archivos del componente web &lt;b&gt;menu&lt;/b&gt;" style="shape=note;whiteSpace=wrap;html=1;backgroundOutline=1;darkOpacity=0.05;rounded=0;sketch=0;fillColor=#f5f5f5;strokeColor=#666666;fontColor=#333333;" parent="1" vertex="1">
                    <mxGeometry x="480" y="280" width="160" height="140" as="geometry"/>
                </mxCell>
                <mxCell id="52" value="&lt;h1&gt;&lt;span&gt;Angular (Framework)&lt;/span&gt;&lt;/h1&gt;&lt;div&gt;Angular es un Framework para crear aplicaciones Single Page Application (&lt;b&gt;SPA)&lt;/b&gt;&lt;/div&gt;&lt;div&gt;&lt;b&gt;&lt;br&gt;&lt;/b&gt;&lt;/div&gt;&lt;div&gt;- Bootstrap de la app&lt;/div&gt;&lt;div&gt;- Router de nav&lt;/div&gt;&lt;div&gt;- Interceptors&lt;/div&gt;&lt;div&gt;- Auth por router, etc..&lt;/div&gt;" style="text;html=1;strokeColor=none;fillColor=none;spacing=5;spacingTop=-20;whiteSpace=wrap;overflow=hidden;rounded=0;" parent="1" vertex="1">
                    <mxGeometry x="20" y="760" width="620" height="150" as="geometry"/>
                </mxCell>
                <mxCell id="72" style="edgeStyle=orthogonalEdgeStyle;curved=0;rounded=1;sketch=0;orthogonalLoop=1;jettySize=auto;html=1;" parent="1" source="68" target="70" edge="1">
                    <mxGeometry relative="1" as="geometry"/>
                </mxCell>
                <mxCell id="86" value="usa" style="edgeLabel;html=1;align=center;verticalAlign=middle;resizable=0;points=[];" parent="72" vertex="1" connectable="0">
                    <mxGeometry x="-0.1884" y="1" relative="1" as="geometry">
                        <mxPoint as="offset"/>
                    </mxGeometry>
                </mxCell>
                <mxCell id="76" style="edgeStyle=orthogonalEdgeStyle;curved=0;rounded=1;sketch=0;orthogonalLoop=1;jettySize=auto;html=1;" parent="1" source="68" target="75" edge="1">
                    <mxGeometry relative="1" as="geometry"/>
                </mxCell>
                <mxCell id="79" style="edgeStyle=orthogonalEdgeStyle;curved=0;rounded=1;sketch=0;orthogonalLoop=1;jettySize=auto;html=1;entryX=0.75;entryY=1;entryDx=0;entryDy=0;" parent="1" source="68" target="77" edge="1">
                    <mxGeometry relative="1" as="geometry"/>
                </mxCell>
                <mxCell id="87" value="usa" style="edgeLabel;html=1;align=center;verticalAlign=middle;resizable=0;points=[];" parent="79" vertex="1" connectable="0">
                    <mxGeometry x="0.0847" y="-1" relative="1" as="geometry">
                        <mxPoint as="offset"/>
                    </mxGeometry>
                </mxCell>
                <mxCell id="68" value="PHP/RUBY/PYTHON/GO..." style="html=1;dropTarget=0;rounded=0;sketch=0;fillColor=#d5e8d4;strokeColor=#82b366;" parent="1" vertex="1">
                    <mxGeometry x="170" y="1425" width="180" height="90" as="geometry"/>
                </mxCell>
                <mxCell id="69" value="" style="shape=module;jettyWidth=8;jettyHeight=4;" parent="68" vertex="1">
                    <mxGeometry x="1" width="20" height="20" relative="1" as="geometry">
                        <mxPoint x="-27" y="7" as="offset"/>
                    </mxGeometry>
                </mxCell>
                <mxCell id="73" style="edgeStyle=orthogonalEdgeStyle;curved=0;rounded=1;sketch=0;orthogonalLoop=1;jettySize=auto;html=1;" parent="1" source="70" target="74" edge="1">
                    <mxGeometry relative="1" as="geometry">
                        <mxPoint x="260" y="1295" as="targetPoint"/>
                    </mxGeometry>
                </mxCell>
                <mxCell id="70" value="ReactJS" style="html=1;dropTarget=0;rounded=0;sketch=0;fillColor=#d5e8d4;strokeColor=#82b366;" parent="1" vertex="1">
                    <mxGeometry x="270" y="1240" width="180" height="90" as="geometry"/>
                </mxCell>
                <mxCell id="71" value="" style="shape=module;jettyWidth=8;jettyHeight=4;" parent="70" vertex="1">
                    <mxGeometry x="1" width="20" height="20" relative="1" as="geometry">
                        <mxPoint x="-27" y="7" as="offset"/>
                    </mxGeometry>
                </mxCell>
                <mxCell id="74" value="La capa de presentacion por sectors (presenter)" style="shape=note;whiteSpace=wrap;html=1;backgroundOutline=1;darkOpacity=0.05;rounded=0;sketch=0;fillColor=#f5f5f5;strokeColor=#666666;fontColor=#333333;" parent="1" vertex="1">
                    <mxGeometry x="510" y="1240" width="140" height="100" as="geometry"/>
                </mxCell>
                <mxCell id="75" value="Logica de negocio/accesso a datos, etc" style="shape=note;whiteSpace=wrap;html=1;backgroundOutline=1;darkOpacity=0.05;rounded=0;sketch=0;fillColor=#f5f5f5;strokeColor=#666666;fontColor=#333333;" parent="1" vertex="1">
                    <mxGeometry x="410" y="1420" width="160" height="100" as="geometry"/>
                </mxCell>
                <mxCell id="77" value="VueJS" style="html=1;dropTarget=0;rounded=0;sketch=0;fillColor=#d5e8d4;strokeColor=#82b366;" parent="1" vertex="1">
                    <mxGeometry x="20" y="1240" width="180" height="90" as="geometry"/>
                </mxCell>
                <mxCell id="78" value="" style="shape=module;jettyWidth=8;jettyHeight=4;" parent="77" vertex="1">
                    <mxGeometry x="1" width="20" height="20" relative="1" as="geometry">
                        <mxPoint x="-27" y="7" as="offset"/>
                    </mxGeometry>
                </mxCell>
                <mxCell id="80" value="&lt;h1&gt;Librerias&lt;/h1&gt;" style="text;html=1;strokeColor=none;fillColor=none;spacing=5;spacingTop=-20;whiteSpace=wrap;overflow=hidden;rounded=0;sketch=0;" parent="1" vertex="1">
                    <mxGeometry x="20" y="1180" width="190" height="40" as="geometry"/>
                </mxCell>
                <mxCell id="85" value="HTTP/JSON" style="edgeStyle=orthogonalEdgeStyle;curved=0;rounded=1;sketch=0;orthogonalLoop=1;jettySize=auto;html=1;exitX=0.995;exitY=0.498;exitDx=0;exitDy=0;exitPerimeter=0;" parent="1" source="102" target="83" edge="1">
                    <mxGeometry relative="1" as="geometry"/>
                </mxCell>
                <mxCell id="83" value="Web API/REST&lt;br&gt;PHP/RUBY/PYTHON/GO,etc" style="html=1;dropTarget=0;rounded=0;sketch=0;fillColor=#f5f5f5;strokeColor=#666666;fontColor=#333333;" parent="1" vertex="1">
                    <mxGeometry x="540" y="970" width="180" height="90" as="geometry"/>
                </mxCell>
                <mxCell id="84" value="" style="shape=module;jettyWidth=8;jettyHeight=4;" parent="83" vertex="1">
                    <mxGeometry x="1" width="20" height="20" relative="1" as="geometry">
                        <mxPoint x="-27" y="7" as="offset"/>
                    </mxGeometry>
                </mxCell>
                <mxCell id="92" value="HTTP/JSON" style="edgeStyle=orthogonalEdgeStyle;curved=0;rounded=1;sketch=0;orthogonalLoop=1;jettySize=auto;html=1;" parent="1" source="88" target="90" edge="1">
                    <mxGeometry relative="1" as="geometry"/>
                </mxCell>
                <mxCell id="88" value="ReactJS" style="html=1;dropTarget=0;rounded=0;sketch=0;fillColor=#d5e8d4;strokeColor=#82b366;" parent="1" vertex="1">
                    <mxGeometry x="40" y="1600" width="180" height="90" as="geometry"/>
                </mxCell>
                <mxCell id="89" value="" style="shape=module;jettyWidth=8;jettyHeight=4;" parent="88" vertex="1">
                    <mxGeometry x="1" width="20" height="20" relative="1" as="geometry">
                        <mxPoint x="-27" y="7" as="offset"/>
                    </mxGeometry>
                </mxCell>
                <mxCell id="90" value="Web API/REST&lt;br&gt;PHP/RUBY/PYTHON/GO,etc" style="html=1;dropTarget=0;rounded=0;sketch=0;fillColor=#f5f5f5;strokeColor=#666666;fontColor=#333333;" parent="1" vertex="1">
                    <mxGeometry x="420" y="1600" width="180" height="90" as="geometry"/>
                </mxCell>
                <mxCell id="91" value="" style="shape=module;jettyWidth=8;jettyHeight=4;" parent="90" vertex="1">
                    <mxGeometry x="1" width="20" height="20" relative="1" as="geometry">
                        <mxPoint x="-27" y="7" as="offset"/>
                    </mxGeometry>
                </mxCell>
                <mxCell id="95" style="edgeStyle=orthogonalEdgeStyle;curved=0;rounded=1;sketch=0;orthogonalLoop=1;jettySize=auto;html=1;" parent="1" source="93" target="88" edge="1">
                    <mxGeometry relative="1" as="geometry"/>
                </mxCell>
                <mxCell id="96" value="import" style="edgeLabel;html=1;align=center;verticalAlign=middle;resizable=0;points=[];" parent="95" vertex="1" connectable="0">
                    <mxGeometry x="0.1358" relative="1" as="geometry">
                        <mxPoint as="offset"/>
                    </mxGeometry>
                </mxCell>
                <mxCell id="93" value="Redux" style="html=1;dropTarget=0;rounded=0;sketch=0;fillColor=#d5e8d4;strokeColor=#82b366;" parent="1" vertex="1">
                    <mxGeometry x="40" y="1730" width="180" height="90" as="geometry"/>
                </mxCell>
                <mxCell id="94" value="" style="shape=module;jettyWidth=8;jettyHeight=4;" parent="93" vertex="1">
                    <mxGeometry x="1" width="20" height="20" relative="1" as="geometry">
                        <mxPoint x="-27" y="7" as="offset"/>
                    </mxGeometry>
                </mxCell>
                <mxCell id="102" value="Angular" style="shape=folder;fontStyle=1;tabWidth=110;tabHeight=30;tabPosition=left;html=1;boundedLbl=1;labelInHeader=1;container=1;collapsible=0;recursiveResize=0;rounded=0;sketch=0;fillColor=#d5e8d4;strokeColor=#82b366;" parent="1" vertex="1">
                    <mxGeometry x="30" y="920" width="330" height="210" as="geometry"/>
                </mxCell>
                <mxCell id="98" value="@angular/router" style="html=1;dropTarget=0;rounded=0;sketch=0;fillColor=#fff2cc;strokeColor=#d6b656;" parent="102" vertex="1">
                    <mxGeometry x="180" y="60" width="140" height="60" as="geometry"/>
                </mxCell>
                <mxCell id="99" value="" style="shape=module;jettyWidth=8;jettyHeight=4;" parent="98" vertex="1">
                    <mxGeometry x="1" width="20" height="20" relative="1" as="geometry">
                        <mxPoint x="-27" y="7" as="offset"/>
                    </mxGeometry>
                </mxCell>
                <mxCell id="81" value="@angular/core" style="html=1;dropTarget=0;rounded=0;sketch=0;fillColor=#fff2cc;strokeColor=#d6b656;" parent="102" vertex="1">
                    <mxGeometry x="10" y="60" width="130" height="61" as="geometry"/>
                </mxCell>
                <mxCell id="82" value="" style="shape=module;jettyWidth=8;jettyHeight=4;" parent="81" vertex="1">
                    <mxGeometry x="1" width="20" height="20" relative="1" as="geometry">
                        <mxPoint x="-27" y="7" as="offset"/>
                    </mxGeometry>
                </mxCell>
                <mxCell id="104" value="@angular/material" style="html=1;dropTarget=0;rounded=0;sketch=0;fillColor=#fff2cc;strokeColor=#d6b656;" parent="102" vertex="1">
                    <mxGeometry x="10" y="140" width="130" height="60" as="geometry"/>
                </mxCell>
                <mxCell id="105" value="" style="shape=module;jettyWidth=8;jettyHeight=4;" parent="104" vertex="1">
                    <mxGeometry x="1" width="20" height="20" relative="1" as="geometry">
                        <mxPoint x="-27" y="7" as="offset"/>
                    </mxGeometry>
                </mxCell>
                <mxCell id="132" value="usa" style="edgeStyle=orthogonalEdgeStyle;curved=0;rounded=1;sketch=0;orthogonalLoop=1;jettySize=auto;html=1;" parent="1" source="107" target="125" edge="1">
                    <mxGeometry relative="1" as="geometry"/>
                </mxCell>
                <mxCell id="107" value="Modulo Ventas" style="shape=module;align=left;spacingLeft=20;align=center;verticalAlign=top;rounded=0;sketch=0;fillColor=#f5f5f5;strokeColor=#666666;fontColor=#333333;" parent="1" vertex="1">
                    <mxGeometry x="40" y="2080" width="430" height="300" as="geometry"/>
                </mxCell>
                <mxCell id="110" value="Medios de Pago&lt;br&gt;" style="html=1;dropTarget=0;rounded=0;sketch=0;fillColor=#dae8fc;strokeColor=#6c8ebf;" parent="1" vertex="1">
                    <mxGeometry x="90" y="2130" width="180" height="90" as="geometry"/>
                </mxCell>
                <mxCell id="111" value="" style="shape=module;jettyWidth=8;jettyHeight=4;" parent="110" vertex="1">
                    <mxGeometry x="1" width="20" height="20" relative="1" as="geometry">
                        <mxPoint x="-27" y="7" as="offset"/>
                    </mxGeometry>
                </mxCell>
                <mxCell id="112" value="Tickets" style="html=1;dropTarget=0;rounded=0;sketch=0;fillColor=#dae8fc;strokeColor=#6c8ebf;" parent="1" vertex="1">
                    <mxGeometry x="90" y="2248" width="180" height="90" as="geometry"/>
                </mxCell>
                <mxCell id="113" value="" style="shape=module;jettyWidth=8;jettyHeight=4;" parent="112" vertex="1">
                    <mxGeometry x="1" width="20" height="20" relative="1" as="geometry">
                        <mxPoint x="-27" y="7" as="offset"/>
                    </mxGeometry>
                </mxCell>
                <mxCell id="126" style="edgeStyle=orthogonalEdgeStyle;curved=0;rounded=1;sketch=0;orthogonalLoop=1;jettySize=auto;html=1;entryX=0.464;entryY=1.005;entryDx=0;entryDy=0;entryPerimeter=0;" parent="1" source="114" target="125" edge="1">
                    <mxGeometry relative="1" as="geometry"/>
                </mxCell>
                <mxCell id="114" value="Modulo Almacen" style="shape=module;align=left;spacingLeft=20;align=center;verticalAlign=top;rounded=0;sketch=0;fillColor=#f5f5f5;strokeColor=#666666;fontColor=#333333;" parent="1" vertex="1">
                    <mxGeometry x="730" y="2480" width="480" height="300" as="geometry"/>
                </mxCell>
                <mxCell id="108" value="Products" style="html=1;dropTarget=0;rounded=0;sketch=0;fillColor=#dae8fc;strokeColor=#6c8ebf;" parent="1" vertex="1">
                    <mxGeometry x="640" y="2120" width="180" height="90" as="geometry"/>
                </mxCell>
                <mxCell id="109" value="" style="shape=module;jettyWidth=8;jettyHeight=4;" parent="108" vertex="1">
                    <mxGeometry x="1" width="20" height="20" relative="1" as="geometry">
                        <mxPoint x="-27" y="7" as="offset"/>
                    </mxGeometry>
                </mxCell>
                <mxCell id="130" style="edgeStyle=orthogonalEdgeStyle;curved=0;rounded=1;sketch=0;orthogonalLoop=1;jettySize=auto;html=1;entryX=0.25;entryY=1;entryDx=0;entryDy=0;" parent="1" source="117" target="125" edge="1">
                    <mxGeometry relative="1" as="geometry">
                        <Array as="points">
                            <mxPoint x="640" y="2630"/>
                            <mxPoint x="640" y="2480"/>
                            <mxPoint x="720" y="2480"/>
                        </Array>
                    </mxGeometry>
                </mxCell>
                <mxCell id="131" value="usa" style="edgeLabel;html=1;align=center;verticalAlign=middle;resizable=0;points=[];" parent="130" vertex="1" connectable="0">
                    <mxGeometry x="0.1241" y="1" relative="1" as="geometry">
                        <mxPoint as="offset"/>
                    </mxGeometry>
                </mxCell>
                <mxCell id="117" value="Modulo Compras" style="shape=module;align=left;spacingLeft=20;align=center;verticalAlign=top;rounded=0;sketch=0;fillColor=#f5f5f5;strokeColor=#666666;fontColor=#333333;" parent="1" vertex="1">
                    <mxGeometry x="60" y="2510" width="480" height="300" as="geometry"/>
                </mxCell>
                <mxCell id="123" value="Proveedores" style="html=1;dropTarget=0;rounded=0;sketch=0;fillColor=#dae8fc;strokeColor=#6c8ebf;" parent="1" vertex="1">
                    <mxGeometry x="100" y="2615" width="180" height="90" as="geometry"/>
                </mxCell>
                <mxCell id="124" value="" style="shape=module;jettyWidth=8;jettyHeight=4;" parent="123" vertex="1">
                    <mxGeometry x="1" width="20" height="20" relative="1" as="geometry">
                        <mxPoint x="-27" y="7" as="offset"/>
                    </mxGeometry>
                </mxCell>
                <mxCell id="128" value="Hitorial" style="html=1;dropTarget=0;rounded=0;sketch=0;fillColor=#dae8fc;strokeColor=#6c8ebf;" parent="1" vertex="1">
                    <mxGeometry x="770" y="2580" width="180" height="90" as="geometry"/>
                </mxCell>
                <mxCell id="129" value="" style="shape=module;jettyWidth=8;jettyHeight=4;" parent="128" vertex="1">
                    <mxGeometry x="1" width="20" height="20" relative="1" as="geometry">
                        <mxPoint x="-27" y="7" as="offset"/>
                    </mxGeometry>
                </mxCell>
                <mxCell id="133" value="Categorias" style="html=1;dropTarget=0;rounded=0;sketch=0;fillColor=#dae8fc;strokeColor=#6c8ebf;" parent="1" vertex="1">
                    <mxGeometry x="860" y="2120" width="180" height="90" as="geometry"/>
                </mxCell>
                <mxCell id="134" value="" style="shape=module;jettyWidth=8;jettyHeight=4;" parent="133" vertex="1">
                    <mxGeometry x="1" width="20" height="20" relative="1" as="geometry">
                        <mxPoint x="-27" y="7" as="offset"/>
                    </mxGeometry>
                </mxCell>
                <mxCell id="135" value="Location" style="html=1;dropTarget=0;rounded=0;sketch=0;fillColor=#dae8fc;strokeColor=#6c8ebf;" parent="1" vertex="1">
                    <mxGeometry x="1000" y="2570" width="180" height="90" as="geometry"/>
                </mxCell>
                <mxCell id="136" value="" style="shape=module;jettyWidth=8;jettyHeight=4;" parent="135" vertex="1">
                    <mxGeometry x="1" width="20" height="20" relative="1" as="geometry">
                        <mxPoint x="-27" y="7" as="offset"/>
                    </mxGeometry>
                </mxCell>
                <mxCell id="137" value="&lt;h1&gt;&lt;span&gt;Modulo&lt;/span&gt;&lt;/h1&gt;&lt;h1&gt;&lt;span style=&quot;font-size: 12px ; font-weight: 400&quot;&gt;Organizar/dividir pequeòas funcionalidades que se puedan reutilizar&lt;/span&gt;&lt;/h1&gt;" style="text;html=1;strokeColor=none;fillColor=none;spacing=5;spacingTop=-20;whiteSpace=wrap;overflow=hidden;rounded=0;sketch=0;" parent="1" vertex="1">
                    <mxGeometry x="40" y="1910" width="400" height="120" as="geometry"/>
                </mxCell>
            </root>
        </mxGraphModel>
    </diagram>
</mxfile>